<?xml version="1.0" encoding="UTF-8"?>
<svg xmlns="http://www.w3.org/2000/svg" viewBox="0 0 538.83 359.22">
  <defs>
    <style>
      .cls-1 {
        fill: #fff;
        font-family: MyriadPro-Regular, 'Myriad Pro';
        font-size: 6.48px;
      }

      .cls-2 {
        letter-spacing: 0em;
      }

      .cls-3 {
        letter-spacing: .03em;
      }
    </style>
  </defs>
  <g id="Background">
    <rect width="538.83" height="359.22"/>
  </g>
  <g id="States">
    <path id="TX" d="M244.87,197.93c1.5,8.08-6.73,26.82,6.99,24.99l.64,3.05c2.03,1.36,10.71.78,11.18,1.08,2.95,1.91-.86,1.37,5.31,2.42,3.6.61,9.38,2.08,12.41,2.44,2.71.32,8.92-2.61,12.74-1.76,2.82.62,5.09,4.12,8.61,3.88.37,5,.15,11.48,1.18,16.33.72,3.39,4.17,8.7,4.76,11.29.38,1.68-1.46,16.48-2.04,17.12-.26.29-4.81,2.21-5.34,2.19l-1.46-.51c-1-3.72-2.96-1.71-5.98-2.52,5.39,7.33-3.73,11.44-9.52,14l-.49-2c-2.64,2.35-3.12,1.7-5.98,0l.98,5-2.99-1c1,4.11-3.11,2.61-5,5.51l1.99,1.48-3.99.02.99,5.99c-8.6-.87-1.34,2.98-1.27,3.43.11.62-.77,2.17-.51,3.75.62,3.7,1.89,7.21,2.78,10.82-2.95-1.13-7.69-1.36-10.27-2.22-1.33-.45-2.1-1.95-3.48-2.51-6.1-2.46-6.19.18-8.95-8.05-3.37-10.06-4.17-9.34-9.1-17.9s-5.7-18.67-18.96-19.06c-7.67-.22-6.49,5.43-10.83,9.66-1.51.36-10.98-6.04-12.31-7.5-4.05-4.45-2.2-8.88-4.67-13.33-3.16-5.71-13.1-9.23-15.41-16.59l36.99,2.5,4-53,27.01,1Z"/>
    <path id="CA" d="M101.17,207.22c-.52.96-3.99,7.98-4.12,8.44-.77,2.58,1.23,6.01-.13,6.81l-24-1.59c-.52-6.7-1.27-10.75-5.51-16.01-.92-1.14-3.06-1.67-3.34-2.16-.62-1.09.15-3.25-.26-3.71-.22-.24-3.76-.03-5.38-1.14-1.78-1.22-1.57-3.82-2.99-5.01-2.3-1.93-8.64-.98-10.15-3.93-.29-3.42,1.01-7.06.02-10.47-1.19-4.07-7.51-12.42-6.46-16.86.17-.74,1.9-.63,2.03-1.27.87-4.11-2.2-3.65-3.08-5.08-.78-1.26-2.15-7.61.04-8.3l3,4.99-.99-6.98,4-2.01c-3.72-1.81-4.68-.11-7.99.98-1.6-7.55-4.51-11.31-3.95-19.45.12-1.67,1.78-3.05,1.48-4.62-.37-1.96-3.16-4.93-3.29-7.6-.15-3.09,6.5-8.47,7.3-12.3.43-2.06-.84-3.96-.54-6.03l34.58,10.96-8.41,34.34,38.22,57.8c.46,1.04,2.42,8.04,2.35,8.47-.15.94-2.12,1.11-2.45,1.71Z"/>
    <path id="MT" d="M214.82,91.9c-17.95-.8-36.75-6-54.46-7.02-5.54-.32-5.56,3.35-9.18,3.72-2.52.26-7.1-1.34-10.18-.83l-4.6-14.88-5.54.03c1.05-1.54,4.25-11.29,4.08-12.36-.1-.64-3.04-1.63-4.12-3.09-5.17-6.99-6.72-18.26-3.89-26.46l90.99,13.36c1.49,1.04,1.04,6.08.92,8.06-.8,13.11-3,26.37-4.02,39.47Z"/>
    <polygon id="NM" points="215.87 189.93 211.87 246.94 174.87 243.94 174.32 247 159.86 245.93 159.86 250.94 151.86 249.93 161.84 184.38 215.87 189.93"/>
    <path id="AZ" d="M158.84,183.97l-9.94,65.53-18.75-3.34-34.26-19.72,4.9-5.13-1.83-3.73c3.42-2.04,3.08-6.49,4.46-8.59.75-1.13,3.02-1.42,3.41-2.68.43-1.39-2.54-5.44-2.72-8.12-.24-3.72,1.67-9.06.76-13.24l4.5,2.03c4.86-.36,3.33-8.98,5.44-10.61l44.02,7.61Z"/>
    <path id="NV" d="M123.87,116.95l-14.5,66.97c-8.8-5.09-5.83,2.14-6.5,7.54-.62,4.94-2.82-1.4-3.55-2.45-11.47-16.34-22.37-33.1-33.27-49.83l7.82-33.25,50,11.01Z"/>
    <polygon id="CO" points="228.86 142.94 225.86 188.94 161.86 181.93 167.87 136.93 228.86 142.94"/>
    <polygon id="WY" points="214.87 93.93 210.75 138.82 150.86 131.93 158.81 87.36 214.87 93.93"/>
    <path id="OR" d="M36.86,91.93c.02-11.19,8.05-18.26,12.18-28.32,2.17-5.26,3.93-11.05,4.83-16.68l10.92,11.56c4.44-.53,7.99,1.89,11.57,2.45,6.29.99,33.28-.66,35.36,6.69,1.39,4.92-9.71,10.39-8.88,15.73.2,1.27,1.63,2.42,1.65,3.07s-1.64,2.33-1.96,3.68c-.7,2.92-3.42,18.32-5.14,18.63l-60.54-16.82Z"/>
    <path id="MN" d="M293.85,42.94c-.27,5.38,3.74,9.07,8.77,9.83,2.69.4,4.94-1.42,7.51-.67.38.11,5.44,2.86,6.73,3.49,1.39.68,2.73,3.05,4.5,3.04,1.59-.01,3.02-2.37,4.17-2.53s2.06,1.42,2.99,1.52c2.09.21,4.84-.74,7.33.35,1.8,1.77-6.02,3.93-7.51,4.98-1.35.95-11.93,11.4-12.54,12.46-1.26,2.14-.79,4.27-1.71,6.29-.85,1.88-3.93,3.91-4.07,5.92-.08,1.12,1.69,2.73,1.92,4.81s-.98,5.39-.55,6.58c.59,1.61,10.29,7.05,12.41,9.49,1.1,1.26,1.31,1.69,1.04,3.45l-43,1.01c-.76-.76.8-18.18.03-21.3-.28-1.12-2.37-1.17-3-2.2,5.33-3.46,1.52-8.8,1-14.02-.32-3.24.4-6.75-.08-9.92-.41-2.71-2.65-5.28-2.9-8.19-.3-3.43,1.5-6.66-.03-10.37l13.37-.13,1.62-3.16,1.99-.71Z"/>
    <path id="UT" d="M148.92,133.89c2.77.77,16.34,1.57,16.7,3.51l-5.75,43.55-45.01-7.01,11.01-56,23.04,4.51v11.44Z"/>
    <path id="KS" d="M296.86,190.94l-68.01-1.99c-.87-5.23.87-10.58,1.05-15.46.12-3.35-1.19-17.77,1.54-18.43l61,3.87c-1.82,3.59,4.42,8.01,4.42,8.51v23.5Z"/>
    <path id="ID" d="M124.86,29.96c-2.55,7.54-3.18,14.15-.23,21.7.8,2.06,6.82,10.12,6.89,10.75.37,3.55-8.78,15.65,2.33,12.51.81,5.59,2.7,10.94,5.99,15.53,2.31,1.14,14.62-.19,14.94,2.02l-4.94,27.47-48.89-11.58,5.95-23.81-2.04-2.1,10.04-13.07c.24-2.52-2.37-3.97-2.87-6.17-1.63-7.24,7.07-25.98,7.85-34.27l4.97,1.01Z"/>
    <path id="SD" d="M277.86,85.94c-2.58,4.92,1.49,5.39,2.06,9.44.99,7.03-1.18,13.29-1.64,19.07-.15,1.84,2.49,4.68.56,7.48-3.67-1.3-8.05-.42-11.42-1.04-3-.56-5.9-2.55-10.07-2.93-5.46-.5-39.97-.6-41.47-2.03l1.99-30.49,1.62-2.43,58.37,2.93Z"/>
    <path id="NE" d="M288.86,154.93l-58-1.98-.1-11.9-16.9-1.1,1-21.01,45.55,1.96c5.32,3.55,7.17,1.78,11.83,2.08,12.61.81,10.69,24.19,16.62,31.96Z"/>
    <path id="ND" d="M273.75,47.05c1.87,3.58-.25,6.94.12,10.29.25,2.28,2.31,4.75,2.75,7.33,1.08,6.32.01,12.99,2.24,19.26l-60.01-2.99,3.02-35.99,51.88,2.1Z"/>
    <path id="WA" d="M116.79,28.02c1.66,2.31-8.75,28.74-6.93,33.91-9.07-3.61-18.35-2.19-27.48-3.01-5.72-.52-10.97-3.36-16.85-3.15-3.69-1.25-4.33-11.81-9.68-10.84,2.49-2.59-.38-6.61,3-7.48-3.76-4.33-1.27-11.17-2.99-16.5,1.33-1.3,12.81,6.29,15.97,6.06l-1.14,3.79-3.83.16,3.99,2.48-5.99,4.5c5.48,1.83,8.59-3.28,9.56-7.96.14-.66,1.1-8.1,1.11-8.54.02-1.41-2.19-2.65-1.67-4.48l42.92,11.08Z"/>
    <path id="OK" d="M296.87,192.93c.85,12.28,3.46,24.53,1.5,37-4.67-5.52-11.07-1.08-16.03-1.14-5.49-.07-12.85-2.66-17.19-3.81-2.61-.69-7.94-.1-10.25-1.57-1.09-.69-1.2-2.88-2.64-3.26-.79-.21-2.17.86-3.38.33-4.29-1.88-.95-19.16-1.43-23.61-1.67-2.3-24.19-2.04-28.59-2.94v-2.99s78.01,1.99,78.01,1.99Z"/>
    <path id="MO" d="M299.86,166.44c-.15-.47-3.96-2.27-4.47-4.49-.39-1.73,2.09-3.39.55-5.35-.83-1.06-6.63-2.77-7.08-6.65l34.38-.94,1.45,1.61c-1.22,9.26,7.69,10.11,9.12,17.91l4.05-.59c-3.38,11.62,1.59,8.55,6.04,13.47,2.44,2.7,1.29,5.65,2.51,7.54.49.77,2.4.78,2.53,1.55.42,2.36-5.18,6.79-4.08,10.44l-1.97-.48c1.33-1.19.76-5.21-.69-5.56l-42.33,2.04c-1.46-7.48,1.96-24.26,0-30.5Z"/>
    <path id="FL" d="M454.09,294.77c.23.37,2.01.59,2.66,1.75,3.84,6.81,1.57,14.43,1.14,21.73-.28,1.11-9.19,4.55-8.51.67l2.49.51v-1.47c-3.43.19-3.34-4.56-5-5.53-1.44-.84-3.76-.13-5.04-.96-1.15-.74-1.19-3.58-2.08-4.96-1.37-2.15-4.92-1.16-1.89-6.56-1.51-1.26-3.13,4.39-5.87-.64-1.9-3.48-1.09-5.79-.13-9.36l-4-1.01-1,2.99c.6-3.54,1.34-13.21-1.23-15.77-.52-.52-3.2-.63-4.74-1.76-3.73-2.71-7.77-10.29-13.37-8.34-1.47.51-4.86,6.85-10.06,5.95-1.37-.7-.69-2.67-1.94-3.82-2.15-1.98-4.86-1.44-6.43-1.93-1.2-.37-1.44-2.73-3.16-2.89-1.88-.17-3.08,2.27-4.75,2.43-1.5.14-2.13-1.87-3.83-1.9-.79-.01.02,3.31-2.5,2.04l-1-5,23.45-2.88c1.88,4.39,9.43,3.14,14.04,2.86,5.9-.37,13.22-4.04,18.01.99l1.5-5.99c1.07.07,2.37-.23,3.35.16,1.06.42,8.8,15.25,10.19,17.81,2.76,5.07,7.63,12.84,9.74,17.38.74,1.61-.23,3.21-.05,3.5Z"/>
    <path id="GA" d="M407.66,209.16c.49.29.75,2.16,1.64,2.8,6.3,4.54,14.54,11.26,19.97,17.07,2.99,3.2,4.79,8.13,8.58,10.42l-3.01,2.02c3.9,4.48-1.41,7.36-.99,12.49-4.67-3.28-5.3,2.67-6.69,3.01-1.71.42-10.06.8-12.81.97-1.97.12-11.19.91-11.88.78-4.05-.76-5.39-13.65-3.9-17.15l-9.7-30.62,18.8-1.79Z"/>
    <path id="WI" d="M352.87,96.93l3.99-2.5c.56-.95,1.91.73,1.98,1.06.79,3.97-2.79,10.56-2.99,15-.18,4.04,1.36,7.46,1.01,11.46-9.51-.62-18.91,3.49-27.84-1.15.89-11.35-4.84-18.17-15-22.01.62-3.05-1.35-9.7-.74-11.89.44-1.61,2.48-2.95,3.32-4.72s.59-4.78,1.78-6.22c1.34-1.61,6.26-1.96,7.99-3.99,1.49,3.48,4.7,6.25,8.22,7.75,3.27,1.38,16.06,3.37,17.3,4.7.29.31,2.97,7.61,2.98,8.04.03,1.77-2.5,2.49-2.01,4.48Z"/>
    <path id="IA" d="M325.85,114.95c.09,1.9.13,6.42,1.26,7.74.66.78,2.72.78,3.69,1.79.92.95,4.98,5.94,4.91,6.78-.4,4.71-8,4.68-7.87,8.17.06,1.52,3.68,5.74-1.98,8.08-1.07.44-1.95-1.39-3.44-1.48-1.28-.08-3.22.91-5.03.96-9.87.29-19.68.87-29.54.96.61-11.87-9-21.18-5.99-33.02l43.98.02Z"/>
    <path id="IL" d="M357.73,125.07c4.1,8.68,2.54,16.46,3.09,25.41.28,4.65,2.16,12.56,1.74,16.83-.23,2.34-2.88,4.38-3.46,6.37-.52,1.79-.01,3.81-.46,5.54-.77,3.01-4.12,3.88-2.79,6.7-3.22-1.06-4.36-1.32-6.99,1.01,2.09-7.28-8.23-8.94-9.55-11.99-.48-1.1,1.32-2.96,1.54-4.59.75-5.64-2.93-3.33-5.47-5.44-1.87-1.55-8.35-9.9-8.26-12.31.16-4.7,8.44-8.52,3.76-13.18,3.33-1.58,9.08-5.54,7.86-9.79-.62-2.16-5.76-2.87-2.88-4.22,1.39-.66,20.95-.95,21.87-.36Z"/>
    <path id="AR" d="M340.86,196.94l-1.99,5.48c1.45,2.13,1.99,1.15,3.72.77,3.19-.69-.71,4.28-.98,5.08-1.34,3.91-2.55,7.65-4.31,11.59-2.54,5.68-7.49,9.4-4.43,17.07l-27,1.01v-7.01s-4.99,0-4.99,0c1.71-10.66,1.33-21.46-1-31.99l40.99-2Z"/>
    <path id="AL" d="M386.76,212.04l9.08,29.44c-1.98,5.04.57,9.26-.04,14.4l-23.29,2.2-1.73,2.37,2.07,7.47-4.01-4.99-3.98,3.99c-3.08-18.23-1.1-35.69-1.01-54l22.91-.89Z"/>
    <path id="NY" d="M474.82,72.97c1.48,4.67,1.77,9.73,3.08,14.42.86,3.07,3.04,5.12,3.7,9.3,1.09,6.89,1.32,15.18,2.25,22.24-2.96-1.4-6.49-1.43-9.34-3.15-3.15-1.9-3.21-5.66-7.09-5.69-4.75.09-34.96,8.3-36.56,7.34-3.08-1.84,4.04-6.25,4-9.01-.03-1.73-3.19-3.4-1.57-5.55,4.27-3.4,10.5-.91,14.86-2.16,2.03-.58,4.75-4.66,7.65-4.91l-1.03-4.29,2.1-1.06c-3.82-3.08.43-9.22,3-12.01,3.7-4.02,9.69-5.08,14.95-5.47Z"/>
    <path id="MS" d="M360.87,213.93c.45,18.01-1.41,36.24,2,54l-8.44-.03-1.06,2.03c-3.13-3.03-3.29-5.96-2.51-9.99l-19,.99c-.82-5.32,5.88-9.82,5.74-14.7-.05-1.81-2.23-3.75-2.57-6.06-.26-1.78.65-3.2.55-4.61s-1.74-2.41-1.51-3.93,7.62-15.56,8.81-16.17c2.07-1.06,17.34-2.18,17.98-1.53Z"/>
    <path id="NC" d="M474.85,185.95l.02-3.01,3.49,2.03.51-2.02,2,1.52c-1.59,3.68-3.05,7.01-7.46,4.43l-.98,1.95-4.57-.41,5.99,3.02-3.99,3.48,6.97-.49c-1.47,3.22-5.15,1.83-6.76,2.73-.39.22-4.6,5.91-5.48,7.02-2,2.49-2.3,5.84-6.24,7.75-1.22-.79.92-1.94-.44-3.46-.52-.58-11.94-8.13-12.69-8.25-2.22-.36-7.78,1.63-9.92,1.6-.72,0-.57-2.22-2.05-2.75-9.59-3.41-22.63,6.08-32.38,5.85-.35-1.54,1.34-.71,2.04-1.68.6-.83.44-2.43,1.18-3.08,2.3-1.99,13-6.7,15.66-8.85,2.24-1.82,3.41-6.22,6.02-6.96l41.49-7.21c3.25,2.37,2.41,6.16,7.6,6.79Z"/>
    <path id="LA" d="M332.86,239.94c3.23,6.71-.49,8.89-2.31,14.19-5.35,15.6,8.08,7.29,17.26,8.86l2.04,6.94c-3.18-1.11-6.06-1.6-6.99,2.49,2.17,3.53,4.44-.18,5.49-.13s2.81,2.92,5.49.65c1.23,3.96-3.19,2.64-2.98,5.98.52.76,8.92,2.3,6.5,5.01l-10.51-4.98v3.51s-4.4-.6-4.4-.6l-1.11,2.1-1.47-.05c-.65-2.23-8.44-6.24-10.76-6.74-6.53-1.4-3.5,1.88-4.32,2.69-1.64,1.61-11.35-3.4-14.47-2.89-2.08-5.02,1.93-10.37,1.51-14.44-.28-2.76-3.95-8.29-4.72-11.37s-.48-7.77-1.28-11.22h27Z"/>
    <path id="PA" d="M473.51,134.59c-.45.39-5.43,3.03-6.21,3.29-12.01,3.88-27.2,4.22-39.43,8.06.11-6.08-5.33-21.28-3.83-26.29.24-.79,1.66-2.47,2.33-2.71,2.45-.88.95,3.36,2.93,3.76,6.59-.23,34.72-9.06,38.87-7.65.62.21,4.42,5.04,4.51,5.53.58,3.12-4.94,8.28,2.93,12.83-.73.94-1.28,2.45-2.12,3.17Z"/>
    <path id="OH" d="M421.86,121.94c.38,5.98,3.78,23.72-.53,28-3.29,3.27-2.46.69-5.83,6.65-.74,1.31-3.76,2.14-3.11,6.37l-2.02.97c-3.48-5.22-5.09-.94-9.85-1.06-.73-.02-5.31-.95-5.51-1.15-.82-.83.77-4.8-5.15-2.78l-2.86-28.87c9.35-3.96,15.9,2.9,24.92-1.58,1.5-.75,9.2-7.46,9.93-6.56Z"/>
    <path id="TN" d="M420.84,188.92c-2.26,2.02-5.98,2.3-7.94,3.56-2.63,1.69-10.3,8.79-12.41,11.04-.97,1.04-3.46,3.97-4.32,4.23-10.18,1.69-20.61,1.38-30.8,2.2-3.29.26-20.66,4.77-21.51.47,1.1-4.61,5.94-8.83,3.99-13.47,4.25-1.89,10.72-.06,14.31-.98,1.11-.28.7-2.61,3.16-3.05,11.93-2.15,27.47-1.59,40.02-2.99,4.78-.53,10.26-1.99,15.04-2.97l.46,1.96Z"/>
    <path id="KY" d="M392.84,160.94c1.39,8.43,13,1.15,16.33,4.91,1.45,1.64,1.69,7.83,5.62,9.72.37,2.08-11.04,11.03-13.45,12.35-12.05,1.85-29.44.23-40.77,3-1.07.26-.95,2.39-2.32,2.87-2.03.71-5.15-.12-7.38.14l1.01-5.99,6.05.54c-.15-3.91,2.05-3.77,2.65-4.79.7-1.19,0-3.38,1.23-4.27.19-.14,4.33-1.08,4.56-1.07.87.05,1.61,1.56,2.79,1.4,3.29-.44,5.6-3.66,6.66-4.29.94-.55,2.59.89,4.03.04s3.76-6.64,5.31-8.27c.82-.86,2.76-.85,3.69-1.79,1.51-1.54,1.02-5.05,4-4.49Z"/>
    <path id="ME" d="M526.51,56.28c.64.62,3,4.01,2.35,4.65-1.83-.64-4.72,1.99-5.69,3.37-1.53,2.19,1.75,3.04-4.36,2.04l-.96,3.59-2.98-3.99c-.28,2.28-1.19,8.81-3.03,9.97-2.52,1.59-1.28-3.27-3.97-1.98l-3.99,12.99c-.78-6.26-8.62-17.17-8.98-22.55-.23-3.39,2.78-6.32,2.94-8.99.15-2.52-1.38-8.08-.74-10.7s4.58-6.78,3.78-10.74l4.51,2.06,3.06-3.13c8.59,1.23,7.43,12.57,10.54,17.47,1.51,2.38,6.21,4.65,7.54,5.95Z"/>
    <path id="VA" d="M458.7,151.09l.59,6.92c.98,1.37,12.04,1.43,10.07,5.92l-5.5-2.99,6.02,4.49c.49,4.15-1.02,1.39-1.77,1.81-.38.21-.99,2.28-3.24,2.18,2.49.34,4.87,4.19,5.18,4.37,1.16.69,6.64-3.24,5.82,1.13l-68,12c1.1-1.98,8.16-8.57,9.65-8.84s2.76,1.79,4.66,1.6c1.19-.12,10.9-4.38,11.45-4.98,1.62-1.76,2.66-10.28,3.69-11.83.89-1.34,3.35-.51,4.34-1.15.57-.37,5.79-10.22,6.24-11.78,4.54,1.38,6.44-1.6,10.81,1.14Z"/>
    <path id="IN" d="M383.76,130.05c.58,4.37,4.79,32.25,3.04,33.85-.47.43-2.79-.39-3.76.2-2.21,1.35-2.03,12.06-9.17,7.85l-.64,3.03-11.36,1.96c-.67-3.95,2.7-5.54,3.05-9.5.29-3.29-1.04-5.94-1.09-8.96-.09-4.62-.82-21.96.18-24.9,1.15-3.38,16.09-3,19.77-3.53Z"/>
    <path id="SC" d="M432.67,204.16c.56.35.58,2.31,1.61,2.49,2.25.41,7.44-2.35,10.83-1.53,1.11.27,11.67,7.59,11.67,8.3-3.16,2.19-2.99,7.11-4.47,9.43-1.1,1.73-4.6,5.02-6.43,3.08l1,3.99h-5s-.01,5.01-.01,5.01l-3.98-3,.99,3.99-13.09-14.4c-4.81-1.86-6.83-5.98-10.01-8.99-.84-.79-3.51-.85-3.9-2.11-1.83-5.98,17.89-8.08,20.8-6.26Z"/>
    <path id="WV" d="M445.86,147.94c.64,3.37-2.37,4.39-4,6.48-.91,1.16-1.01,3.31-1.99,4.07-.74.57-2.32-.31-3.03.02-2.44,1.16-2.7,11.7-5.65,14.48-.76.72-8.68,3.82-9.64,3.74-2.02-.18-9.93-7.77-9.6-9.16,3.32-1.99,2.25-5.42,3.49-7.62,1.76-3.12,4.27-4.72,6.89-7.06,1.19-1.06,2.2-4.44,2.75-4.75,1.56-.88,6.84.38,9.24-1.1,2.09.42,1.06,6.56,4.06,5.89,1.53-.34,4.14-6.28,7.51-4.99Z"/>
    <g id="MI">
      <path id="MI_2" d="M391.72,85.08c.86,5.5,3.61,13.53-2.37,16.86l.5,2.99c4.71,1.59,4.38-7.89,8.99-5.56,1.94.98,5.52,12.84,5.07,14.87-.19.86-1.9.97-2.43,1.78-1.94,2.97-4.1,6.17-3.7,9.85l-28.93,3.06c2.22-3.3,2.69-8.58,1.95-12.44-.54-2.81-2.29-4-3.2-8.79-.25-1.32-1.47-2.44-1.57-3.43-.05-.5,2.59-8.51,3.05-9.6.65-1.56,2.74-2.68,2.79-4.72h1.98s1,3.99,1,3.99c-1.43-4.27,1.47-5.78,2.37-7.99.54-1.34-.81-4.09,2.35-4.89l12.15,4.02Z"/>
      <path id="MI_1" d="M346.86,67.93v4.01c6.59-3.64,8.34,2.89,13.53,3.07,4.7.16,3.38-1.89,4.75-2.78,1.72-1.13,7.12-.82,9.25-3.18,1.67,5.97,7.47,2.01,8.44,2.94.2.19-.27,1.89.29,2.64.99,1.3,3.68.89,2.73,4.31-2.85-.29-5.44-2.79-6.51,1.06-2.45-2.02-10.04-2.36-12.3-.87-.7.46-.68,3.36-2.14,4.29-1.77,1.12-7.04-.99-7.54,6.53-2.52-1.34-1.48-4.81-2.57-6.34-3.7-5.24-19.32-3.85-20.93-8.17l9.99-6.99,3-.5Z"/>
    </g>
    <path id="VT" d="M489.86,66.94c-.65,1.98.84,5.11.61,6.55-.18,1.14-2.11,1.86-2.47,3.17-.12.45-.91,8.43-.93,9.01-.08,3.15,1.55,6.82.79,10.28l-3.37.04-7.45-23.58,12.82-5.46Z"/>
    <path id="NH" d="M490.91,94.89l-1.06-8.42,4-18.53,8.74,21.5c-2.44,3.81-7.26,5.58-11.68,5.44Z"/>
    <path id="MA" d="M506.86,92.94l-3,4.98c3.7-1.09,3.19,3.11,5.7,3.87s4.82-1,7.3-.85l-6.54,4.97-1.94-1.98-3.04,1.96-4.11-4.78-16.37,3.82.57-6.11c5.43-2.34,15.57-.44,17.54-6.8l3.89.93Z"/>
    <path id="DE" d="M482.86,120.95l-1.99,5.44c7.06,3.62.73,12.66-.51,18.54l-7.45-4.62c-.97-3.33,6.02-6.03,6-8.89l-.52-1.5c-5.73-2.53-4.95-6.14-2.47-10.96l6.93,1.99Z"/>
    <path id="CT" d="M486.87,117.94l-2.02-9.99,12.07-2.58c6.15,9.31-5.09,7.25-10.05,12.57Z"/>
    <g id="HI">
      <path id="HI_4" d="M216.86,326.92c-4.33,1.37-9.3,2.77-11.57,7.08-.92.07-3.24-1.36-4-2.07-1.89-1.78-.18-3.51-.59-6.24-.2-1.34-1.87-2.75-1.84-4.28.05-2.24,4.29-3.53,2.47-7.48.91-1.75,6.87,2.12,8.02,3.01,1.48,1.14,8.54,8.56,7.5,9.98Z"/>
      <path id="HI_3" d="M189.92,303.87c-.63-.89.94-2.92,1.44-2.91.3,0,4.88,2.24,5.42,2.56,4.05,2.42,1.11,5.52-2.28,4.3-1.2-.43-1.46-2.02-2.26-2.81s-2.25-1.04-2.32-1.14Z"/>
      <path id="HI_2" d="M174.68,294.09c.82,1.46-.02,2.93-1.31,3.82-1.51-2.69-5.21-.84-5.45-1.02-1.69-1.27-1.07-7.11,2.43-6.96l4.33,4.15Z"/>
      <path id="HI_1" d="M145.57,282.12c7.92-2.28,6.52,8.3-1.11,3.7-.61-.37-2.08-1.18-1.11-1.89.64-.7,1.25-1.54,2.22-1.81Z"/>
    </g>
    <path id="DE-2" data-name="DE" d="M479.4,149.99l-3.39.91-1.11-.88-2.49-9.02c1.22,1.26,7.84,7.86,6.98,8.99Z"/>
    <g id="MA-2" data-name="MA">
      <rect id="MA_Box" x="496.56" y="136.13" width="12.05" height="12.05"/>
      <text class="cls-1" transform="translate(498.03 144.06)"><tspan class="cls-2" x="0" y="0">M</tspan><tspan x="5.15" y="0">A</tspan></text>
    </g>
    <g id="RI">
      <rect id="RI_Box" x="496.56" y="153.19" width="12.05" height="12.05"/>
      <text class="cls-1" transform="translate(500.07 161.12)"><tspan x="0" y="0">RI</tspan></text>
    </g>
    <g id="CT-2" data-name="CT">
      <rect id="CT_Box" x="496.56" y="170.13" width="12.05" height="12.05"/>
      <g id="CT-3" data-name="CT">
        <text class="cls-1" transform="translate(499.01 178.06)"><tspan class="cls-3" x="0" y="0">C</tspan><tspan x="3.94" y="0">T</tspan></text>
      </g>
    </g>
    <g id="NJ">
      <rect id="NJ_Box" x="496.56" y="187.19" width="12.05" height="12.05"/>
      <text class="cls-1" transform="translate(499.26 195.12)"><tspan x="0" y="0">NJ</tspan></text>
    </g>
    <g id="DE-3" data-name="DE">
      <rect id="DE_Box" x="496.56" y="204.35" width="12.05" height="12.05"/>
      <text class="cls-1" transform="translate(498.84 212.28)"><tspan x="0" y="0">DE</tspan></text>
    </g>
    <g id="DC">
      <rect id="DC_Box" x="496.56" y="221.4" width="12.05" height="12.05"/>
      <text class="cls-1" transform="translate(498.55 229.33)"><tspan x="0" y="0">DC</tspan></text>
    </g>
    <path id="AK" d="M117.63,323.63c-.59-.95-.41-2.87-.99-3.46-.81-.82-3.9-.46-4.59-1.43-.49-.68-.04-2.66-.72-3.73-1-1.59-7.55-9-8.98-8.87-2.02.18-1.82,4.56-3.95,3.78-2.7-1.05-3.16-5.22-4.5-6.44-.75-.69-5.94.6-6.91-2.16l2.95-50.94c.31-.73-2.85-5.24-3.13-5.39-.38-.2-3.89,2.66-8.23.75-3.48-1.53-.49-2.06-8.02-3.82-.38-.09-1.99-3.66-5.69-1.98l.99-3.99-1.84.88c-1.6-4.79-1.96-1.67-4.12-1.34-7.01,1.09-12.02-.77-16.68,6.31l-5.34-1.85c-2.34,5.41,3.08,7.44,2,13.01,2.4-1.37,3.42-.51,4.99,1.5l-2.99-.5,1.98,6.99-5.1-3.38-.91-4.62-11,1.52c3.15,3.42-.14,6.02,2,9l7.37,3.4c1.15-.19,3.26-4.1,4.63-2.9,1.89,1.65-1.89,2.04-2.01,2.65-.32,1.61.52,3.97-.42,5.42l-7.61,1.38.03,5.54c-3.87-4.98-6.96-6.21-11.97-1.5,0,.8,8.19,8.71.99,7.51,1.84,2.48,3.59,1.18,2.06,5.38l1.4,1.44,3.53-.83-3,7.98,5-1.55c1.96,1.93,4.27,3.52,4.02,6.57l5.98-1.51c-5.53,7.46-12.91,11.8-22.33,11.52l-.66,2.98,2-1.99h.98c-1.64,3.08,10.1,1.48,11.22.97,1.2-.55,1.13-2.06,2.21-2.59.88-.43,7.83-1.7,8.59-2.41l-1.01-1.97c4.09.39,6.93-1.97,10-4.51l-2.08-1.09,1.1-4.42,3.85.9c1.07-3.76,4.93-5.17,7.63-7.59l3.51,3.69c-5.57-2.36-5.93.82-8.99,4.51l2.99-.5c1.11,3.35-3.32,1.42-3.99,3.99l4.94-.09.06-2.91c10.39,3.73,7.53-4.54,8-4.99.31-.3,1.67.66,2.47.47,1.96-.46,2.7-2.05,5.51-.46l-2.99,2.98c.93.03,2.18.07,2.93.57,6.2,4.16,14,4.98,20.74,9.77,2.23,1.59,2.59,6.35,8.33,4.66v-4.98c2.1,4.29,2.74,6.49,2.14,11.06h0s-.45,1.34-.45,1.34l-.71-1.4-2.96,1.49,3.56,3.52,3.41-1.02c-.71,5.65,3.75,5.91,5.03,10,1.54,1.39,5.39-4.49,4.01-5.95h0c1.08,1.07,1.21,1.21.97,2.95,4.48-2.19.35-4.75-1.24-7.31Z"/>
    <path id="MD" d="M469.55,138.5l4.01,14.08,5.56-1.17c.12,0,.12-.08.14.09.05.28.04.94,0,1.23-.02.21-.14.38-.16.58-.07.64-.13,2.69-.49,3.1-.26.29-2.46.84-3.02,1.1-.45.2-.45.62-.56.66-.12.04-.59-.24-1.07.03-.26.14-.31.81-.81.75,0-.2-.17-.41-.19-.58-.03-.21.2-.59.19-.83-.03-.94-.85-.66-.92-.79l-.11-.68.57-.29c-.24-.78-1.06-.21-1.66-.29l.69,1.94c-.07.13-.77-.25-.85-.44-.1-.23-.05-.54-.21-.74-.07-.1-1.1-.77-1.28-.89-.6-.37-.27-.17-.58-.71-.14-.25-.92-1.01-.95-1.16-.03-.16.3-.53.31-.67.01-.37-.49-.75.26-.93.29-.07.64.1.54-.3-.14-.58-.23-.33-.46-.46-.18-.1-.24-.34-.49-.32-.46.04-.32.62-.75.5-.05-.51-.18-.54-.58-.75-.08-.48.42-.37.63-.67.12-.17.08-.39.21-.55l.5.3c.47-.02-.14-1.08-.1-1.31-.63.13-1.13.23-.99.98l-.34.16c-.18-.73-.06-1.48.17-2.18l.69.06c-.07-.44-.15-.75-.43-1.1-.13-.17-.29-.08-.3-.41,0-.23.16-1.04.23-1.3.04-.14.18-.25.23-.4.17-.48.02-.6.49-1.06.35-.33,1.11-.54.46-1.07-.37-.01-1.52,1.58-1.78,1.94-.32.45-.6,1.23-1.07,1.58-.23.17-.68.15-.8.52,0,.21.76.29.89.43.27.28.25,1.01.6,1.32,0,.04-.46.37-.49.66,0,.1.17.14.19.31.02.24-.29.76-.35,1.02l.27.1-.34,1.01c.4.33.35.69.5,1.12.05.15.19.27.23.39.19.59-.02.9.55,1.5.21.22.97.66,1.06.81.17.29.04.59.11.79.06.16.25.18.28.27.05.12-.06.4,0,.59.1.35.79.8.87.99.08.21.03.81.18,1.08-.27-.15-.78-.58-1.07-.64-.21-.04-.31.12-.48.12-.65-.02-.86-.97-1.94-.93s-2.06.2-2.94-.65c-.28-.27-.34-.69-.63-.95-.24-.08-1.33,1.02-1.62.96-.16-.03-.49-.38-.55-.55-.19-.57-.13-1.41.3-1.87.1-.1.38-.24.39-.27.04-.12-.16-.47-.11-.72.06-.28.54-.5.58-.61.1-.23-.12-.59-.07-.85s.65-.91.78-1.22c.17-.45-.96-.72-1.21-1.03l-.65.73c-.41-.37-.79-.06-1.26-.23l-.19-.54c-.55-.25-1.59.03-1.95-.13-.1-.04-.17-.18-.26-.24-.18-.12-.33-.03-.42-.32-.12-.43.4-.58.32-1.04-.09-.13-1.12-.6-1.3-.64-.33-.07-1.09.06-1.28-.03-.4-.2-.21-.54-.32-.79-.09-.21-.66-.65-.85-.93-.21-.32-.32-.66-.46-1.02-.57-.05-.99-.07-1.53.17l-.93-.6c-.93.19-1.65.79-2.5,1.16-.17.23-.33,1.21-.53,1.26-.37-.06-.7.12-1.05.15-.15.01-.99-.01-1.07-.04-.09-.04-.26-.36-.38-.49-.06-.06-.35-.36-.43-.29-.19.36-.31.76-.5,1.12-.23.44-.73.85-.57,1.38-.43.08-.93-.33-1.34,0-.09.07-.32.72-.42.89-.49.84-.84,1.18-1.45,1.88-.29.32-.43.76-.87.98l-1.23-5.83,32.53-7.34Z"/>
  </g>
</svg>